<?xml version="1.0" encoding="utf-8"?>
<!-- Generator: Adobe Illustrator 25.0.1, SVG Export Plug-In . SVG Version: 6.00 Build 0)  -->
<svg version="1.1" id="Layer_1" xmlns="http://www.w3.org/2000/svg" xmlns:xlink="http://www.w3.org/1999/xlink" x="0px" y="0px"
	 viewBox="0 0 170 25" style="enable-background:new 0 0 170 25;" xml:space="preserve">
<style type="text/css">
	.st0{fill:none;stroke:#056674;stroke-width:0.5;stroke-miterlimit:10;}
</style>
<g>
	<path class="st0" d="M13.9,20.12l0.67-4.46H1.62L3.79,0.85l146.7,0l-1.03,7h-6.48l0.73-3.76l-133.78,0L8.4,12.43h12.95l-1.31,9.31
		c0,0.32-0.07,0.61-0.22,0.89c-0.15,0.28-0.34,0.52-0.59,0.72c-0.25,0.2-0.52,0.36-0.83,0.47C18.1,23.94,17.78,24,17.44,24H0.61
		l0.64-5.19l0.98,1.31H13.9z"/>
	<path class="st0" d="M33.77,13h-3.44l-0.3,1.28h-6.47l0.98-4.52h15.85l-1.96,12.61L39.74,24H24.53c-0.65,0-1.14-0.21-1.47-0.64
		c-0.33-0.43-0.49-0.97-0.49-1.62l0.98-6.17h9.71L33.77,13z M29.38,18.81l-0.34,1.96h3.24l0.34-1.96H29.38z"/>
	<path class="st0" d="M41.83,9.77h6.81l1.42,3l1.82-2.36l-0.34-0.64h7.12l-5.94,7.12L56.73,24h-6.48l-1.42-2.66L46.35,24h-6.14
		l5.94-7.12l-3.34-5.84L41.83,9.77z"/>
	<path class="st0" d="M74.85,9.77c0.65,0,1.14,0.26,1.47,0.79c0.33,0.53,0.49,1.12,0.49,1.77L75.18,24H60.61
		c-0.65,0-1.14-0.21-1.47-0.64c-0.33-0.43-0.49-0.97-0.49-1.62l1.62-11.97H74.85z M66.41,13l-1.28,7.76h3.88L70.33,13H66.41z"/>
	<path class="st0" d="M96.26,9.77L94.31,24h-6.48l1.62-11h-3.88l-1.62,11h-6.48l1.96-13.29l-0.98-0.94H96.26z"/>
	<path class="st0" d="M101.25,12.23l0.88-4.55c0.13-0.76,0.44-1.29,0.91-1.61c0.47-0.31,1.07-0.47,1.79-0.47h10.08l-1.25,6.64
		l-3.64,2.41l2.06,1.66l1.92-2.44l3.37,0.33l-2.97,4.03l3.04,2.54l-3.04,2.57l-2.29-1.98L110.15,24h-8.84
		c-0.83,0-1.39-0.19-1.67-0.57c-0.28-0.38-0.37-0.89-0.25-1.54l0.88-4.52l3.95-2.63L101.25,12.23z M106.75,16.81l-2.77,1.85
		l-0.44,2.34h4.82l1.35-1.72L106.75,16.81z M110.42,8.59h-4.52l-0.44,2.34l2.02,1.66l2.5-1.66L110.42,8.59z"/>
	<path class="st0" d="M129.34,4.91l-2.26,15.85h12.61l-0.3,3.24h-16.83c-0.65,0-1.14-0.21-1.47-0.64c-0.33-0.43-0.49-0.97-0.49-1.62
		l1.96-15.55l-0.98-1.28H129.34z"/>
	<polygon class="st0" points="149.46,9.77 147.5,24 141.03,24 142.98,10.71 142.01,9.77 	"/>
	<path class="st0" d="M158.21,9.77l-1.48,10.12l4.05-0.4l1.31-8.77l-0.98-0.94h7.45L166.61,24h-6.48l0.2-1.28L149.78,24l1.96-13.29
		l-0.98-0.94H158.21z"/>
</g>
</svg>
